<svg width="18" height="20" viewBox="0 0 18 20" fill="none" xmlns="http://www.w3.org/2000/svg">
<path d="M11.8977 15.5083C11.8977 14.4391 11.2243 13.8175 9.9335 12.7216C9.64183 12.4716 9.32683 12.2066 9.00183 11.9116C8.63099 12.2525 8.2785 12.5525 7.95516 12.8283C6.66683 13.9166 6.10266 14.4491 6.10266 15.5083C6.10266 16.2768 6.40793 17.0137 6.95132 17.5571C7.49471 18.1005 8.2317 18.4058 9.00016 18.4058C9.76863 18.4058 10.5056 18.1005 11.049 17.5571C11.5924 17.0137 11.8977 16.2768 11.8977 15.5083Z" fill="#4888FF" fill-opacity="0.5"/>
<path d="M12.6737 3.3625C11.6737 2.51333 10.6404 1.63583 9.59539 0.591667L9.00039 0L8.41706 0.5925C6.53872 2.4775 5.65039 5.3725 5.26539 7.10917C4.96996 6.65171 4.75072 6.14935 4.61622 5.62167L4.26039 4.2575L3.23289 5.22167C1.43372 6.91167 0.232891 8.5875 0.232891 11.2708C0.215592 13.2071 0.845856 15.0936 2.02355 16.6307C3.20124 18.1677 4.8588 19.2671 6.73289 19.7542C7.20379 19.8735 7.68331 19.9557 8.16706 20C7.11812 19.8045 6.17047 19.2486 5.488 18.4284C4.80552 17.6082 4.43112 16.5753 4.42956 15.5083C4.42956 13.6333 5.56039 12.675 6.86956 11.5567C7.33706 11.1592 7.86956 10.7083 8.40706 10.1675L9.00039 9.5775L9.59039 10.1675C10.0704 10.6475 10.5504 11.0542 11.0146 11.4492C12.3279 12.5633 13.5679 13.6158 13.5679 15.5083C13.5666 16.5711 13.1952 17.6003 12.5176 18.419C11.8399 19.2378 10.8984 19.795 9.85456 19.995C12.0217 19.7847 14.0328 18.7748 15.4957 17.1622C16.9586 15.5495 17.7683 13.4498 17.7671 11.2725C17.7671 7.6875 15.4062 5.68333 12.6737 3.3625Z" fill="#4888FF" fill-opacity="0.5"/>
</svg>
