<svg width="22" height="21" viewBox="0 0 22 21" fill="none" xmlns="http://www.w3.org/2000/svg">
<path d="M16.0397 0.800102C15.0079 0.816151 13.9986 1.10418 13.1137 1.6351C12.2289 2.16602 11.4998 2.92103 11 3.82389C10.5003 2.92103 9.77122 2.16602 8.88635 1.6351C8.00149 1.10418 6.99219 0.816151 5.96039 0.800102C4.31558 0.871565 2.7659 1.5911 1.64991 2.80152C0.533929 4.01193 -0.0576439 5.61483 0.00443591 7.26002C0.00443591 11.4264 4.38985 15.9768 8.06788 19.062C8.88909 19.7521 9.92738 20.1304 11 20.1304C12.0727 20.1304 13.111 19.7521 13.9322 19.062C17.6102 15.9768 21.9956 11.4264 21.9956 7.26002C22.0577 5.61483 21.4662 4.01193 20.3502 2.80152C19.2342 1.5911 17.6845 0.871565 16.0397 0.800102Z" fill="#343A3F"/>
</svg>
